<?xml version="1.0" encoding="iso-8859-1"?>
<!-- Generator: Adobe Illustrator 19.0.0, SVG Export Plug-In . SVG Version: 6.00 Build 0)  -->
<svg version="1.1" id="Layer_1" xmlns="http://www.w3.org/2000/svg" xmlns:xlink="http://www.w3.org/1999/xlink" x="0px" y="0px"
	 viewBox="0 0 512.001 512.001" style="enable-background:new 0 0 512.001 512.001;" xml:space="preserve">
<path style="fill:#2BA5F7;" d="M454.028,227.293v166.725c-21.682,0-39.269,17.576-39.269,39.269H114.452
	c0-21.693-17.587-39.269-39.269-39.269V258.317v-21.879V204.59c21.682,0,39.269-17.576,39.269-39.269h51.817h30.19h136.294h24.811
	h57.196c0,21.693,17.587,39.269,39.269,39.269L454.028,227.293L454.028,227.293z"/>
<path style="fill:#2197D8;" d="M110.992,406.829v-12.812V258.317v-21.879V204.59v-12.811c0-14.612,11.845-26.457,26.457-26.457
	h-22.997h-12.811c-14.612,0-26.457,11.845-26.457,26.457v12.811v31.848v21.879v135.701v12.812c0,14.612,11.845,26.457,26.457,26.457
	h12.811h22.997C122.837,433.287,110.992,421.441,110.992,406.829z"/>
<rect x="196.454" y="104.239" style="fill:#2BA5F7;" width="136.294" height="30.541"/>
<rect x="196.454" y="104.239" style="fill:#2197D8;" width="26.611" height="30.541"/>
<path style="fill:#F95428;" d="M454.028,394.018v12.812c0,14.612-11.845,26.457-26.457,26.457h-12.812
	C414.759,411.594,432.346,394.018,454.028,394.018z"/>
<g>
	<path style="fill:#E54728;" d="M114.452,433.287h-12.811c-14.612,0-26.457-11.845-26.457-26.457v-12.812
		C96.865,394.018,114.452,411.594,114.452,433.287z"/>
	<path style="fill:#E54728;" d="M101.641,165.321h12.811c0,21.693-17.587,39.269-39.269,39.269v-12.811
		C75.183,177.166,87.029,165.321,101.641,165.321z"/>
</g>
<path style="fill:#F95428;" d="M454.028,191.778v12.811c-21.682,0-39.269-17.576-39.269-39.269h12.812
	C442.183,165.321,454.028,177.166,454.028,191.778z"/>
<polygon style="fill:#E09B2D;" points="75.183,236.437 75.183,258.317 8.238,213.592 32.182,177.748 "/>
<g>
	<path style="fill:#F7B239;" d="M102.793,78.714l63.476,86.607h-51.817h-12.812c-14.612,0-26.457,11.845-26.457,26.457v12.811
		v31.848l-43.001-58.689L9.633,146.987L102.793,78.714z"/>
	<path style="fill:#F7B239;" d="M503.77,161.259l-49.742,66.034V204.59v-12.811c0-14.612-11.845-26.457-26.457-26.457h-12.812
		h-57.196l54.869-72.862L503.77,161.259z"/>
</g>
<g>
	<path style="fill:#FFFFFF;" d="M426.583,387.486c-4.547,0-8.234-3.686-8.234-8.234V245.955c0-4.547,3.686-8.234,8.234-8.234
		s8.234,3.686,8.234,8.234v133.297C434.816,383.799,431.13,387.486,426.583,387.486z"/>
	<circle style="fill:#FFFFFF;" cx="426.578" cy="221.167" r="8.234"/>
</g>
<path style="fill:#333333;" d="M511.92,160.106c-0.304-2.163-1.456-4.116-3.2-5.429l-91.339-68.795
	c-1.744-1.314-3.937-1.879-6.102-1.576c-2.163,0.304-4.116,1.456-5.429,3.2l-52.393,69.578h-12.47v-52.848
	c0-4.547-3.686-8.234-8.234-8.234H196.46c-4.547,0-8.234,3.686-8.234,8.234v52.848h-17.785l-61.003-83.237
	c-2.686-3.668-7.839-4.463-11.507-1.774L4.765,140.349c-1.761,1.291-2.938,3.229-3.27,5.387s0.206,4.361,1.497,6.123l19.136,26.113
	l-20.74,31.044c-2.526,3.781-1.508,8.895,2.272,11.419l63.285,42.278v144.112c0,19.132,15.565,34.695,34.695,34.695h325.927
	c19.132,0,34.695-15.565,34.695-34.695V230.04l48.079-63.834C511.658,164.464,512.224,162.269,511.92,160.106z M445.798,195.241
	c-10.505-2.895-18.792-11.182-21.686-21.687h3.458c10.05,0,18.228,8.178,18.228,18.228V195.241z M407.256,173.554
	c3.442,19.605,18.937,35.1,38.542,38.542v174.415c-19.605,3.442-35.1,18.937-38.542,38.542H121.957
	c-3.442-19.605-18.937-35.1-38.542-38.542V212.096c19.605-3.442,35.1-18.937,38.542-38.542H407.256z M83.414,195.241v-3.458
	c0-10.052,8.178-18.228,18.228-18.228h3.458C102.206,184.059,93.92,192.346,83.414,195.241z M324.519,112.471v14.074H204.692
	v-14.074H324.519z M204.692,143.012h119.826v14.073H204.692L204.692,143.012L204.692,143.012z M101.022,90.223l49.001,66.862
	h-48.381c-19.132,0-34.695,15.565-34.695,34.695v19.488l-45.805-62.507L101.022,90.223z M19.655,211.316l12.832-19.21l34.459,47.023
	v3.781L19.655,211.316z M83.414,406.825v-3.458c10.506,2.895,18.792,11.181,21.687,21.687h-3.458
	C91.591,425.054,83.414,416.876,83.414,406.825z M427.57,425.054h-3.458c2.895-10.505,11.181-18.792,21.686-21.687v3.458
	C445.798,416.876,437.62,425.054,427.57,425.054z M462.265,202.67v-10.888c0-19.132-15.564-34.695-34.695-34.695h-53.5
	l39.981-53.095l78.185,58.887L462.265,202.67z"/>
<g>
</g>
<g>
</g>
<g>
</g>
<g>
</g>
<g>
</g>
<g>
</g>
<g>
</g>
<g>
</g>
<g>
</g>
<g>
</g>
<g>
</g>
<g>
</g>
<g>
</g>
<g>
</g>
<g>
</g>
</svg>
